<svg width="160" height="175" viewBox="0 0 160 175" fill="none" xmlns="http://www.w3.org/2000/svg">
<path d="M75.7829 7.93589C75.6682 8.05945 75.5093 8.24479 75.377 8.41542C75.2357 8.58311 75.1063 8.77139 74.971 8.95378C74.8356 9.13324 74.715 9.3274 74.5885 9.51863C74.462 9.70691 74.3385 9.89813 74.2267 10.1011L73.8825 10.6954L73.5706 11.3102C73.3529 11.7133 73.1794 12.1398 72.997 12.5605C72.285 14.2551 71.7996 16.0437 71.4731 17.853L71.276 19.2209C71.1995 19.674 71.1965 20.1418 71.1524 20.5977C71.0553 21.5127 71.0759 22.4394 71.0671 23.3631C71.0494 23.822 71.0965 24.2869 71.123 24.7487L71.2083 26.1314C71.3113 27.0522 71.4437 27.9701 71.5584 28.885L68.1752 29.3116C68.1193 28.3084 68.0487 27.3082 68.0134 26.305L68.0281 24.7958C68.037 24.2927 68.0281 23.7926 68.0781 23.2896C68.1576 22.2864 68.2135 21.2832 68.39 20.2888C68.4724 19.7917 68.5165 19.2916 68.6342 18.8003L68.9607 17.3234C69.4608 15.37 70.1345 13.4578 71.0494 11.6574C71.2819 11.2102 71.5084 10.7572 71.779 10.3306L72.1703 9.68043L72.5969 9.05087C72.7351 8.83905 72.8881 8.63606 73.044 8.43601C73.2 8.23302 73.3471 8.03003 73.5177 7.83587C73.6854 7.64171 73.8442 7.44166 74.0266 7.25338C74.2061 7.05627 74.3738 6.88564 74.6032 6.67383L75.777 7.94178L75.7829 7.93589Z" fill="#1474BF"/>
<path d="M75.0561 7.44159C74.406 8.10645 73.8352 8.88899 73.3263 9.68918L72.9497 10.2952L72.6055 10.9218C72.3672 11.3337 72.1731 11.772 71.9701 12.2045C71.1787 13.9402 70.6198 15.7759 70.2255 17.6411L69.9784 19.0502C69.8843 19.518 69.8666 19.9975 69.8078 20.4712C69.6783 21.4185 69.6725 22.3746 69.6342 23.3277C69.6019 23.8043 69.6342 24.2809 69.6489 24.7604L69.696 26.1931C69.7725 27.1463 69.8813 28.0936 69.9725 29.0438L69.2253 29.1379C69.1488 28.1671 69.0517 27.1993 68.9899 26.2314L68.9664 24.7722C68.9605 24.2868 68.937 23.7984 68.9752 23.313C69.0282 22.3422 69.0517 21.3684 69.1988 20.4035C69.2665 19.921 69.2959 19.4356 69.3959 18.959L69.6725 17.5264C70.1049 15.6288 70.7051 13.7666 71.5406 12.0044C72.3878 10.2511 73.4028 8.57421 74.7972 7.16211L75.0561 7.44159Z" fill="#40BFFF"/>
<path d="M81.4218 6.23972C82.0122 3.7481 80.4709 1.24964 77.9793 0.659267C75.4876 0.0688934 72.9892 1.61017 72.3988 4.10179C71.8084 6.59342 73.3497 9.09187 75.8413 9.68225C78.333 10.2726 80.8314 8.73135 81.4218 6.23972Z" fill="#45BEFF"/>
<path d="M76.9096 10.3348C74.0619 10.3348 71.7437 8.01662 71.7437 5.16888C71.7437 2.32114 74.0619 0 76.9096 0C79.7573 0 82.0755 2.3182 82.0755 5.16594C82.0755 8.01368 79.7573 10.3319 76.9096 10.3319V10.3348ZM76.9096 1.06496C74.6473 1.06496 72.8057 2.90658 72.8057 5.16888C72.8057 7.43119 74.6473 9.2728 76.9096 9.2728C79.1719 9.2728 81.0135 7.43119 81.0135 5.16888C81.0135 2.90658 79.1719 1.06496 76.9096 1.06496Z" fill="#1474BF"/>
<path d="M77.4745 5.7513C78.7321 5.7513 79.7515 4.73184 79.7515 3.47428C79.7515 2.21672 78.7321 1.19727 77.4745 1.19727C76.217 1.19727 75.1975 2.21672 75.1975 3.47428C75.1975 4.73184 76.217 5.7513 77.4745 5.7513Z" fill="#D1EFFF"/>
<path d="M80.4633 32.4648V32.5443C80.4633 36.5835 77.1978 39.849 73.1586 39.849H66.2716C62.2501 39.849 58.9875 36.5835 58.9875 32.5443V32.4648C58.9875 30.076 60.1408 27.9461 61.9118 26.6134C63.1268 25.6985 64.6389 25.1602 66.2716 25.1602H73.1586C74.809 25.1602 76.324 25.6985 77.5361 26.6134C79.3071 27.9461 80.4633 30.076 80.4633 32.4648Z" fill="#BAE7FF"/>
<path d="M73.1586 40.3817H66.2717C61.9618 40.3817 58.4551 36.8661 58.4551 32.5445V32.4651C58.4551 30.0145 59.6289 27.6669 61.5911 26.1901C62.9444 25.1692 64.5624 24.6309 66.2687 24.6309H73.1556C74.8766 24.6309 76.5006 25.1692 77.8538 26.1901C79.819 27.6698 80.9899 30.0145 80.9899 32.4651V32.5445C80.9899 36.8661 77.4743 40.3817 73.1527 40.3817H73.1586ZM66.2717 25.6929C64.7978 25.6929 63.4004 26.1577 62.2325 27.0373C60.532 28.317 59.5171 30.3469 59.5171 32.4651V32.5445C59.5171 36.2778 62.5472 39.3167 66.2687 39.3167H73.1556C76.8889 39.3167 79.9279 36.2778 79.9279 32.5445V32.4651C79.9279 30.3469 78.9129 28.317 77.2154 27.0373C76.0475 26.1577 74.6442 25.6899 73.1556 25.6899H66.2687L66.2717 25.6929Z" fill="#45BEFF"/>
<path d="M76.583 26.6122C75.5474 27.2094 74.3942 27.5271 73.1586 27.5271H66.2717C65.0567 27.5271 63.8829 27.2094 62.8679 26.6122C63.8829 26.015 65.0567 25.6973 66.2717 25.6973H73.1586C74.3913 25.6973 75.5474 26.015 76.583 26.6122Z" fill="white"/>
<path d="M27.6389 92.8129L25.6796 93.163C21.0579 93.9867 16.5539 91.3567 15.6184 87.2881L13.6502 78.7301C12.7147 74.6615 15.7007 70.6959 20.3195 69.8721L22.2788 69.522C26.9005 68.6983 31.4045 71.3284 32.34 75.397L34.3081 83.9549C35.2436 88.0235 32.2576 91.9892 27.6389 92.8129Z" fill="#BFE9FF"/>
<path d="M23.9851 93.8536C19.7635 93.8536 15.9685 91.2177 15.0918 87.4079L13.1237 78.85C12.6736 76.8966 13.0531 74.8755 14.1857 73.1604C15.4919 71.1835 17.6924 69.792 20.2254 69.3389L22.1847 68.9888C27.077 68.1151 31.8693 70.9364 32.8666 75.2756L34.8347 83.8336C35.2849 85.787 34.9054 87.808 33.7727 89.5232C32.4665 91.5001 30.266 92.8916 27.733 93.3447L25.7738 93.6947C25.1736 93.8006 24.5764 93.8536 23.9851 93.8536ZM23.9851 69.9126C23.4556 69.9126 22.9172 69.9597 22.3788 70.0538L20.4195 70.4039C18.1778 70.804 16.2362 72.0249 15.0918 73.7576C14.121 75.2256 13.7974 76.9466 14.1798 78.6088L16.1479 87.1667C17.0187 90.9529 21.2521 93.4035 25.5855 92.6298L27.5448 92.2797C29.7865 91.8796 31.7281 90.6587 32.8725 88.9259C33.8433 87.458 34.1669 85.737 33.7845 84.0748L31.8164 75.5169C31.0544 72.2014 27.7125 69.9096 23.9851 69.9096V69.9126Z" fill="#45BEFF"/>
<path d="M26.6388 89.6754L25.2149 89.9284C21.8582 90.5286 18.5839 88.6164 17.9043 85.6598L16.4746 79.4406C15.795 76.484 17.9661 73.601 21.3228 73.0038L22.7467 72.7508C26.1034 72.1506 29.3777 74.0629 30.0572 77.0195L31.487 83.2386C32.1666 86.1952 29.9955 89.0753 26.6388 89.6754Z" fill="white"/>
<path d="M113.718 92.811L115.678 93.161C120.299 93.9848 124.803 91.3547 125.739 87.2861L127.707 78.7282C128.643 74.6596 125.657 70.6939 121.038 69.8702L119.079 69.5201C114.457 68.6964 109.953 71.3264 109.017 75.395L107.049 83.953C106.114 88.0216 109.1 91.9872 113.718 92.811Z" fill="#BFE9FF"/>
<path d="M117.372 93.8528C116.781 93.8528 116.184 93.7998 115.584 93.6939L113.624 93.3438C111.094 92.8908 108.894 91.4993 107.585 89.5223C106.449 87.8072 106.072 85.7861 106.523 83.8327L108.491 75.2748C109.488 70.9355 114.28 68.1172 119.173 68.988L121.132 69.3381C123.662 69.7882 125.865 71.1826 127.172 73.1596C128.307 74.8747 128.684 76.8958 128.234 78.8492L126.266 87.4071C125.392 91.2139 121.594 93.8528 117.372 93.8528ZM117.372 69.9118C113.642 69.9118 110.303 72.2035 109.541 75.519L107.573 84.0769C107.19 85.7391 107.514 87.4601 108.485 88.9281C109.629 90.6579 111.571 91.8817 113.813 92.2818L115.772 92.6319C120.105 93.4056 124.339 90.955 125.209 87.1688L127.178 78.6109C127.56 76.9487 127.236 75.2277 126.266 73.7597C125.121 72.027 123.18 70.8061 120.938 70.406L118.979 70.0559C118.44 69.9588 117.902 69.9147 117.372 69.9147V69.9118Z" fill="#45BEFF"/>
<path d="M127.174 78.5987L125.203 87.1566C124.347 90.9575 120.108 93.4052 115.769 92.6285L113.818 92.2696C111.571 91.8725 109.638 90.6575 108.485 88.9247C107.508 87.4508 107.19 85.7386 107.57 84.0677L109.541 75.5097C110.176 72.7444 112.606 70.6939 115.551 70.0967C116.645 69.8584 117.799 69.8378 118.975 70.0555L120.946 70.3938C123.176 70.791 125.127 72.0265 126.26 73.7564C126.798 74.5536 127.136 75.4274 127.274 76.3423C127.375 77.0777 127.354 77.8544 127.174 78.5928V78.5987Z" fill="#BFE9FF"/>
<path d="M127.274 76.3511C125.862 77.6838 123.712 78.3427 121.544 77.9632L120.111 77.7043C116.766 77.1071 114.598 74.2212 115.275 71.2763L115.554 70.1025C116.648 69.8642 117.802 69.8436 118.978 70.0613L120.949 70.3997C123.179 70.7968 125.13 72.0324 126.262 73.7622C126.801 74.5595 127.139 75.4332 127.277 76.3481L127.274 76.3511Z" fill="white"/>
<path d="M57.1372 122.857C57.0607 124.493 55.6545 125.775 54.0188 125.699H53.8188C52.0066 125.699 38.927 126.052 29.3688 140.211C28.7893 141.067 27.8332 141.52 26.88 141.52C26.3004 141.52 25.7238 141.37 25.2208 141.017C24.2411 140.338 23.7616 139.205 23.9381 138.099C23.9881 137.672 24.1382 137.243 24.4147 136.866C36.4617 119.083 53.5922 119.686 54.2954 119.736C55.125 119.786 55.8546 120.139 56.3841 120.715C56.8872 121.269 57.1637 122.025 57.1372 122.854V122.857Z" fill="#231F20"/>
<path d="M56.3842 120.718C56.1577 122.254 54.825 123.36 53.2894 123.284H53.1629C51.5772 123.31 38.324 123.484 28.6394 137.822C28.0598 138.679 27.1037 139.132 26.1505 139.132C25.571 139.132 24.9944 138.955 24.4913 138.602C24.2913 138.452 24.0883 138.299 23.9382 138.099C23.9882 137.672 24.1383 137.243 24.4148 136.866C36.4618 119.083 53.5924 119.686 54.2955 119.736C55.1251 119.786 55.8547 120.139 56.3842 120.715V120.718Z" fill="#494A59"/>
<path d="M26.5916 137.811C26.471 137.811 26.3475 137.776 26.2386 137.702C25.9503 137.508 25.8768 137.117 26.0709 136.828C37.3795 120.127 53.7246 120.71 53.8893 120.722C54.2365 120.739 54.5042 121.033 54.4866 121.381C54.4689 121.728 54.1806 121.992 53.8276 121.978C53.6746 121.972 38.0091 121.439 27.1094 137.534C26.9888 137.714 26.7888 137.811 26.5887 137.811H26.5916Z" fill="#797B8A"/>
<path d="M28.3466 133.062L32.0401 135.196C33.5251 136.054 34.0338 137.955 33.1757 139.44L33.0432 139.67C32.1852 141.155 30.2842 141.663 28.7991 140.805L25.1056 138.671C23.6206 137.813 23.1119 135.912 23.97 134.427L24.1025 134.198C24.9606 132.713 26.8616 132.204 28.3466 133.062Z" fill="#D1EFFF"/>
<path d="M30.3514 141.764C29.7189 141.764 29.0952 141.599 28.5333 141.272L24.8413 139.139C23.997 138.651 23.3939 137.866 23.1438 136.924C22.8908 135.983 23.0232 135 23.5086 134.159L23.641 133.929C24.1293 133.085 24.9148 132.482 25.8562 132.232C26.7976 131.979 27.7802 132.108 28.6216 132.597L32.3136 134.73C34.0552 135.736 34.6524 137.969 33.6463 139.71L33.5139 139.94C33.0256 140.784 32.2401 141.387 31.2987 141.637C30.9839 141.719 30.6662 141.764 30.3514 141.764ZM26.8006 133.185C26.577 133.185 26.3534 133.214 26.1328 133.273C25.4708 133.45 24.9178 133.873 24.5736 134.468L24.4412 134.697C24.097 135.291 24.0058 135.983 24.1852 136.645C24.3617 137.307 24.7854 137.86 25.3796 138.204L29.0746 140.337C29.6689 140.681 30.3602 140.772 31.0222 140.593C31.6841 140.416 32.2372 139.993 32.5814 139.398L32.7137 139.169C33.4227 137.945 33.002 136.371 31.7753 135.665L28.0832 133.532C27.689 133.303 27.2477 133.188 26.8035 133.188L26.8006 133.185Z" fill="#45BEFF"/>
<path d="M32.9728 137.637C32.2667 137.823 31.4871 137.711 30.8164 137.302L27.1361 135.184C26.4683 134.813 25.9828 134.181 25.7622 133.513C26.0976 133.327 26.43 133.254 26.8036 133.254C27.2126 133.254 27.6597 133.366 28.0304 133.589L31.746 135.707C32.4903 136.152 32.8992 136.861 32.9728 137.64V137.637Z" fill="white"/>
<path d="M32.9728 137.637C32.2667 137.823 31.4871 137.711 30.8164 137.302L27.1361 135.184C26.4683 134.813 25.9828 134.181 25.7622 133.513C26.0976 133.327 26.43 133.254 26.8036 133.254C27.2126 133.254 27.6597 133.366 28.0304 133.589L31.746 135.707C32.4903 136.152 32.8992 136.861 32.9728 137.64V137.637Z" fill="white"/>
<path d="M54.9418 117.741L55.8245 117.841C57.7712 118.063 59.1723 119.825 58.9505 121.771L58.2635 127.801C58.0417 129.748 56.2802 131.149 54.3335 130.928L53.4508 130.827C51.5041 130.605 50.1029 128.844 50.3247 126.897L51.0121 120.864C51.2339 118.917 52.9954 117.516 54.9421 117.738L54.9418 117.741Z" fill="#D1EFFF"/>
<path d="M54.7485 131.488C54.5955 131.488 54.4396 131.479 54.2837 131.461L53.4011 131.361C52.3156 131.238 51.3448 130.699 50.6622 129.843C49.9827 128.987 49.6767 127.919 49.8003 126.834L50.4857 120.803C50.7417 118.561 52.7716 116.949 55.0133 117.202L55.8958 117.302C56.9814 117.426 57.9522 117.964 58.6347 118.82C59.3172 119.676 59.6203 120.744 59.4967 121.829L58.8112 127.86C58.573 129.943 56.799 131.488 54.7514 131.488H54.7485ZM54.4043 130.387C56.0518 130.579 57.5462 129.387 57.7345 127.737L58.42 121.706C58.5112 120.909 58.2846 120.12 57.7845 119.491C57.2844 118.861 56.5695 118.464 55.7693 118.376L54.8868 118.276C53.2364 118.084 51.7448 119.276 51.5566 120.926L50.8711 126.957C50.7799 127.754 51.0064 128.543 51.5066 129.172C52.0067 129.802 52.7215 130.199 53.5217 130.287L54.4043 130.387Z" fill="#45BEFF"/>
<path d="M121.859 117.764L119.335 114.358C118.32 112.99 118.614 111.045 119.991 110.018L120.202 109.859C121.579 108.833 123.521 109.112 124.536 110.48L127.06 113.887C128.075 115.255 127.781 117.199 126.404 118.226L126.192 118.385C124.815 119.412 122.874 119.132 121.859 117.764Z" fill="white"/>
<path d="M124.336 119.606C124.153 119.606 123.971 119.591 123.789 119.564C122.818 119.42 121.959 118.908 121.376 118.12L118.852 114.713C117.643 113.081 117.99 110.759 119.632 109.536L119.843 109.377C120.644 108.782 121.623 108.532 122.603 108.677C123.574 108.821 124.433 109.333 125.015 110.121L127.539 113.528C128.749 115.16 128.398 117.482 126.76 118.705L126.548 118.864C125.898 119.35 125.127 119.603 124.333 119.603L124.336 119.606ZM122.341 117.405C122.732 117.935 123.309 118.279 123.965 118.376C124.627 118.473 125.292 118.305 125.833 117.902L126.045 117.743C127.154 116.917 127.395 115.346 126.577 114.246L124.053 110.839C123.662 110.309 123.085 109.965 122.429 109.868C121.767 109.768 121.103 109.939 120.561 110.342L120.349 110.501C119.24 111.327 118.999 112.898 119.817 113.998L122.341 117.405Z" fill="#45BEFF"/>
<path d="M89.4983 130.831L88.6155 130.931C86.6688 131.153 84.9073 129.752 84.6855 127.805L83.9985 121.775C83.7767 119.828 85.1778 118.067 87.1245 117.845L88.0073 117.745C89.954 117.523 91.7155 118.924 91.9373 120.871L92.6246 126.904C92.8464 128.85 91.4453 130.612 89.4986 130.834L89.4983 130.831Z" fill="#D1EFFF"/>
<path d="M88.2211 131.488C86.1706 131.488 84.3966 129.943 84.1613 127.86L83.4758 121.829C83.3522 120.744 83.6582 119.676 84.3378 118.82C85.0173 117.964 85.9911 117.425 87.0767 117.302L87.9592 117.202C90.2009 116.949 92.2308 118.564 92.4868 120.803L93.1722 126.834C93.2958 127.919 92.9898 128.987 92.3103 129.843C91.6307 130.699 90.6569 131.238 89.5714 131.361L88.6888 131.461C88.5329 131.479 88.377 131.488 88.224 131.488H88.2211ZM88.4211 118.255C88.3093 118.255 88.1946 118.261 88.0798 118.276L87.1973 118.376C86.3971 118.467 85.6822 118.864 85.1821 119.491C84.682 120.12 84.4555 120.906 84.5467 121.706L85.2321 127.737C85.4204 129.384 86.9119 130.579 88.5623 130.387L89.4449 130.287C90.2451 130.196 90.9599 129.799 91.4601 129.172C91.9602 128.543 92.1867 127.757 92.0955 126.957L91.4101 120.926C91.2365 119.394 89.9303 118.258 88.4211 118.258V118.255Z" fill="#45BEFF"/>
<path d="M57.9726 119.758L57.7343 121.768C57.6549 122.565 57.2577 123.28 56.6194 123.777C55.9839 124.274 55.2073 124.512 54.41 124.412L53.5333 124.312C52.5978 124.212 51.8212 123.694 51.324 122.959L51.5623 120.909C51.7417 119.376 53.0361 118.24 54.5483 118.24C54.6689 118.24 54.766 118.261 54.8866 118.261L55.7809 118.361C56.5782 118.461 57.293 118.858 57.7902 119.496C57.8491 119.576 57.9285 119.676 57.9697 119.755L57.9726 119.758Z" fill="white"/>
<path d="M91.6278 122.945C91.1689 123.681 90.3746 124.219 89.4391 124.319L88.5624 124.419C87.7651 124.519 86.9708 124.281 86.353 123.784C85.7176 123.286 85.3175 122.569 85.238 121.774L84.9998 119.744C85.4763 119.009 86.253 118.471 87.1885 118.371L88.0828 118.271C88.1829 118.271 88.3005 118.25 88.4212 118.25C89.0978 118.25 89.7538 118.488 90.2922 118.906C90.91 119.424 91.3071 120.121 91.4072 120.915L91.6249 122.945H91.6278Z" fill="white"/>
<path d="M96.0465 151.597C96.0465 156.465 84.8997 162.685 71.1464 162.685C57.3931 162.685 46.2463 156.468 46.2463 151.597C46.2463 146.725 57.2696 146.66 71.0228 146.66C84.7761 146.66 96.0465 146.728 96.0465 151.597Z" fill="#BFE9FF"/>
<path d="M71.1493 163.27C57.0312 163.27 45.6638 156.883 45.6638 151.596C45.6638 146.31 56.8547 146.074 71.0258 146.074C85.1968 146.074 96.6348 146.074 96.6348 151.596C96.6348 157.118 85.2674 163.27 71.1493 163.27ZM71.0258 147.245C58.5846 147.245 46.8347 147.245 46.8347 151.596C46.8347 155.947 57.2754 162.099 71.1493 162.099C85.0232 162.099 95.464 155.727 95.464 151.596C95.464 147.245 83.5935 147.245 71.0258 147.245Z" fill="#45BEFF"/>
<path d="M95.464 151.602C95.464 155.721 85.0144 162.09 71.1434 162.09C57.2725 162.09 46.8406 155.721 46.8406 151.602C46.8406 150.805 47.2377 150.149 47.9555 149.61C51.1387 147.242 60.8527 147.242 71.0228 147.242C81.1929 147.242 91.0835 147.242 94.3284 149.61C95.0639 150.149 95.464 150.805 95.464 151.602Z" fill="#91D9FF"/>
<path d="M94.3284 149.612C89.5126 152.519 81.1135 155.067 71.1405 155.067C61.1676 155.067 52.7714 152.519 47.9526 149.612C51.1358 147.244 60.8498 147.244 71.0199 147.244C81.19 147.244 91.0806 147.244 94.3255 149.612H94.3284Z" fill="#D1EFFF"/>
<path d="M75.015 141.391H67.2808C65.4562 141.391 63.9771 142.87 63.9771 144.694V147.839C63.9771 149.664 65.4562 151.143 67.2808 151.143H75.015C76.8396 151.143 78.3187 149.664 78.3187 147.839V144.694C78.3187 142.87 76.8396 141.391 75.015 141.391Z" fill="#231F20"/>
<path d="M76.2653 109.773H66.0305V116.425H76.2653V109.773Z" fill="#231F20"/>
<path d="M76.2005 144.562H66.0981C58.8493 144.562 53.2744 138.158 54.2717 130.979L55.678 120.859C56.1281 117.615 58.9023 115.199 62.1795 115.199H80.1162C83.3905 115.199 86.1647 117.615 86.6177 120.859L88.0239 130.979C89.0212 138.158 83.4464 144.562 76.1976 144.562H76.2005Z" fill="#BFE9FF"/>
<path d="M76.2005 145.1H66.0981C62.4884 145.1 59.0552 143.538 56.687 140.813C54.3158 138.089 53.2421 134.477 53.7392 130.899L55.1484 120.779C55.6338 117.287 58.6581 114.654 62.1824 114.654H80.1191C83.6434 114.654 86.6677 117.287 87.1531 120.779L88.5623 130.899C89.0594 134.477 87.9857 138.089 85.6145 140.813C83.2433 143.538 79.8131 145.1 76.2034 145.1H76.2005ZM62.1795 115.737C59.1905 115.737 56.6252 117.97 56.2134 120.929L54.8042 131.049C54.3511 134.315 55.3308 137.616 57.496 140.104C59.6612 142.593 62.7943 144.02 66.0922 144.02H76.1946C79.4924 144.02 82.6256 142.593 84.7908 140.104C86.956 137.616 87.9386 134.315 87.4826 131.049L86.0734 120.929C85.6616 117.97 83.0962 115.737 80.1073 115.737H62.1707H62.1795Z" fill="#45BEFF"/>
<path d="M75.427 136.695H66.8691C60.7205 136.695 55.9812 132.276 56.8373 127.34L58.0317 120.374C58.1317 119.818 58.3494 119.3 58.6671 118.82H83.626C83.9437 119.297 84.1644 119.815 84.2615 120.374L85.4559 127.34C86.3119 132.276 81.5755 136.695 75.424 136.695H75.427Z" fill="white"/>
<path d="M64.5948 30.0469H76.7654C101.101 30.0469 120.858 49.8045 120.858 74.1398V79.0645C120.858 98.0072 105.481 113.384 86.5383 113.384H54.8219C35.8792 113.384 20.502 98.0072 20.502 79.0645V74.1398C20.502 49.8045 40.2596 30.0469 64.5948 30.0469Z" fill="white"/>
<path d="M86.5383 113.916H54.8219C35.6056 113.916 19.9695 98.2831 19.9695 79.0637V74.139C19.9695 49.5332 39.989 29.5137 64.5949 29.5137H76.7654C101.371 29.5137 121.391 49.5332 121.391 74.139V79.0637C121.391 98.2801 105.758 113.916 86.5383 113.916ZM64.5949 30.5786C40.5744 30.5786 21.0315 50.1215 21.0315 74.142V79.0667C21.0315 97.6976 36.1881 112.854 54.819 112.854H86.5354C105.166 112.854 120.323 97.6976 120.323 79.0667V74.142C120.323 50.1215 100.78 30.5786 76.7595 30.5786H64.589H64.5949Z" fill="#45BEFF"/>
<path d="M120.329 73.4824V79.0543C120.329 97.6823 105.163 112.851 86.5324 112.851H54.8278C36.1998 112.851 21.0315 97.6853 21.0315 79.0543V73.4824C24.853 88.7272 38.7063 99.774 54.8278 99.774H86.5324C102.654 99.774 116.507 88.7272 120.329 73.4824Z" fill="#D1EFFF"/>
<path d="M68.2105 47.4678H73.1499C91.0659 47.4678 105.614 62.0154 105.614 79.9314V85.4975C105.614 97.721 95.6906 107.644 83.467 107.644H57.8933C45.6698 107.644 35.7468 97.721 35.7468 85.4975V79.9285C35.7468 62.0124 50.2944 47.4648 68.2105 47.4648V47.4678Z" fill="#003780"/>
<path d="M83.4641 107.944H57.8904C45.5139 107.944 35.4438 97.8742 35.4438 85.4977V79.9317C35.4438 61.8656 50.1415 47.168 68.2076 47.168H73.147C91.2131 47.168 105.911 61.8656 105.911 79.9317V85.4977C105.911 97.8742 95.8406 107.944 83.4641 107.944ZM68.2076 47.7652C50.471 47.7652 36.041 62.1951 36.041 79.9317V85.4977C36.041 97.5447 45.8434 107.347 57.8904 107.347H83.4641C95.5111 107.347 105.313 97.5447 105.313 85.4977V79.9317C105.313 62.1951 90.8836 47.7652 73.147 47.7652H68.2076Z" fill="white"/>
<path d="M103.233 79.7728V84.9476C103.233 96.3533 93.9989 105.588 82.5932 105.588H58.7699C47.3642 105.588 38.1296 96.3533 38.1296 84.9476V79.7728C38.1296 73.1065 40.2802 66.9551 43.9222 61.9598C49.4353 54.4168 58.3315 49.5215 68.3839 49.5215H72.9821C83.2728 49.5215 92.3661 54.658 97.841 62.5187C101.245 67.414 103.233 73.3654 103.233 79.7758V79.7728Z" fill="#0061AD"/>
<path d="M97.8382 62.5187C94.1167 66.3785 88.8625 68.7879 83.07 68.7879H59.226C53.1569 68.7879 47.6821 66.1608 43.9194 61.9598C49.4325 54.4168 58.3288 49.5215 68.3812 49.5215H72.9793C83.27 49.5215 92.3634 54.658 97.8382 62.5187Z" fill="#42ADFF"/>
<path d="M94.2754 81.1876V84.9502C94.2754 93.211 87.5679 99.9185 79.3071 99.9185H62.0324C53.7716 99.9185 47.0847 93.211 47.0847 84.9502V81.1876C47.0847 75.9922 48.8969 71.2175 51.9212 67.4549C55.9427 62.4596 62.0912 59.2559 69.0164 59.2559H72.3407C79.366 59.2559 85.6175 62.5596 89.6155 67.6961C92.5426 71.4176 94.2725 76.0952 94.2725 81.1905L94.2754 81.1876Z" fill="#004C96"/>
<path d="M89.6186 67.6932C87.5681 68.411 85.3588 68.7876 83.07 68.7876H59.2261C56.6578 68.7876 54.1896 68.311 51.9214 67.4549C55.9429 62.4596 62.0915 59.2559 69.0166 59.2559H72.341C79.3662 59.2559 85.6177 62.5596 89.6157 67.6961L89.6186 67.6932Z" fill="#1E8FE8"/>
<path d="M59.1583 79.0471C60.9999 84.5249 58.4964 90.3145 53.5629 91.9767C48.6293 93.6389 43.1368 90.544 41.2952 85.0662C39.4536 79.5884 41.9571 73.7988 46.8907 72.1367C51.8242 70.4745 57.3167 73.5693 59.1583 79.0471Z" fill="#45BEFF"/>
<path d="M53.1497 90.1215C57.0011 88.841 58.9922 84.4009 57.5969 80.2042C56.2016 76.0075 51.9484 73.6433 48.0971 74.9238C44.2457 76.2042 42.2546 80.6443 43.6499 84.841C45.0451 89.0378 49.2983 91.4019 53.1497 90.1215Z" fill="white"/>
<path d="M50.9946 91.0049C49.7179 91.0049 48.4381 90.6724 47.2467 90.0164C45.3315 88.9632 43.8782 87.1951 43.1545 85.0417C41.6542 80.5788 43.7841 75.8218 47.8998 74.4332C49.9032 73.7596 52.0684 73.9714 53.9983 75.0334C55.9135 76.0866 57.3667 77.8547 58.0905 80.0081C59.5908 84.4709 57.4609 89.228 53.3452 90.6165C52.5774 90.8754 51.786 91.0019 50.9946 91.0019V91.0049ZM50.2503 75.1099C49.5708 75.1099 48.8971 75.2187 48.241 75.4394C44.6784 76.6397 42.8486 80.7965 44.1636 84.7034C44.802 86.6038 46.0788 88.1601 47.7615 89.0868C49.4266 90.0046 51.2888 90.19 53.0069 89.6104C56.5695 88.4101 58.3993 84.2562 57.0843 80.3494C56.4459 78.4489 55.1692 76.8927 53.4864 75.966C52.4567 75.3982 51.3506 75.1099 50.2503 75.1099Z" fill="#8CD7FF"/>
<path d="M100.739 85.2617C102.702 79.3719 99.9934 73.1645 94.6894 71.397C89.3853 69.6295 83.4945 72.9712 81.5318 78.861C79.5691 84.7508 82.2778 90.9582 87.5818 92.7257C92.8859 94.4932 98.7767 91.1515 100.739 85.2617Z" fill="#007BDB"/>
<path d="M82.199 79.0471C80.3574 84.5249 82.861 90.3145 87.7945 91.9767C92.728 93.6389 98.2205 90.544 100.062 85.0662C101.904 79.5884 99.4002 73.7988 94.4667 72.1367C89.5331 70.4745 84.0407 73.5693 82.199 79.0471Z" fill="#45BEFF"/>
<path d="M97.7058 84.8427C99.101 80.646 97.11 76.2059 93.2586 74.9254C89.4072 73.645 85.154 76.0091 83.7587 80.2058C82.3635 84.4026 84.3546 88.8427 88.2059 90.1231C92.0573 91.4036 96.3105 89.0394 97.7058 84.8427Z" fill="white"/>
<path d="M90.3627 91.0032C89.5714 91.0032 88.78 90.8738 88.0122 90.6178C83.8935 89.2292 81.7666 84.4722 83.2669 80.0094C83.9906 77.8559 85.4439 76.0879 87.3591 75.0347C89.2889 73.9727 91.4542 73.7579 93.4576 74.4345C97.5762 75.8231 99.7032 80.5801 98.2028 85.0429C97.4791 87.1964 96.0258 88.9645 94.1107 90.0177C92.9192 90.6737 91.6395 91.0061 90.3627 91.0061V91.0032ZM91.107 75.1082C90.0068 75.1082 88.9006 75.3965 87.871 75.9643C86.1911 76.891 84.9144 78.4473 84.273 80.3477C82.958 84.2545 84.7879 88.4085 88.3505 89.6117C90.0685 90.1912 91.9307 90.003 93.5958 89.088C95.2757 88.1613 96.5524 86.6051 97.1938 84.7046C98.5088 80.7978 96.6789 76.6439 93.1163 75.4436C92.4603 75.223 91.7837 75.1141 91.107 75.1141V75.1082Z" fill="#82D9FF"/>
<path d="M78.7481 94.9258C79.8543 94.9258 80.6544 95.9643 80.425 97.0469C79.4453 101.677 75.3267 105.131 70.3991 105.131C65.4714 105.131 61.391 101.677 60.4143 97.0469C60.1848 95.9643 60.988 94.9258 62.0912 94.9258H78.7481Z" fill="#45BEFF"/>
<path d="M70.3992 105.349C65.5009 105.349 61.2117 101.874 60.1997 97.0909C60.0732 96.4967 60.2203 95.8877 60.5998 95.42C60.9675 94.9669 61.5117 94.7051 62.0913 94.7051H78.7482C79.3278 94.7051 79.872 94.964 80.2397 95.42C80.6192 95.8877 80.7663 96.4967 80.6398 97.0909C79.6278 101.877 75.3209 105.349 70.3992 105.349ZM62.0913 95.1434C61.6441 95.1434 61.2234 95.3435 60.941 95.6935C60.6439 96.0583 60.5321 96.5349 60.6292 96.9968C61.5971 101.58 65.7069 104.908 70.3992 104.908C75.0915 104.908 79.2424 101.58 80.2133 96.9968C80.3104 96.532 80.1986 96.0583 79.9014 95.6935C79.6161 95.3435 79.1983 95.1434 78.7512 95.1434H62.0942H62.0913Z" fill="#003F91"/>
<path d="M80.4252 97.0469C79.4456 101.677 75.3269 105.131 70.3993 105.131C65.4716 105.131 61.3913 101.677 60.4146 97.0469H80.4282H80.4252Z" fill="#45BEFF"/>
<path d="M70.3992 105.349C65.501 105.349 61.2117 101.875 60.1997 97.0912L60.6292 97C61.5971 101.583 65.7069 104.911 70.3992 104.911C75.0915 104.911 79.2425 101.583 80.2133 97L80.6428 97.0912C79.6308 101.878 75.3239 105.349 70.4021 105.349H70.3992Z" fill="#B0E4FF"/>
<path d="M77.301 95.8594C78.2159 95.8594 78.8749 96.5272 78.6866 97.2215C77.8776 100.196 74.4738 102.414 70.3993 102.414C66.3248 102.414 62.9564 100.196 62.1474 97.2215C61.9591 96.5272 62.621 95.8594 63.533 95.8594H77.2981H77.301Z" fill="white"/>
<path d="M89.3979 153.825C89.3979 156.438 81.2283 159.774 71.1464 159.774C61.0646 159.774 52.895 156.438 52.895 153.825C52.895 151.213 60.9764 151.178 71.0552 151.178C81.1341 151.178 89.3949 151.213 89.3949 153.825H89.3979Z" fill="white"/>
<path d="M19.1193 173.455C17.7102 173.108 16.9629 171.599 17.4513 170.081L19.9548 162.27C20.4402 160.752 21.9759 159.805 23.3851 160.149C24.7942 160.496 25.5415 162.005 25.0531 163.523L22.5496 171.334C22.0642 172.852 20.5285 173.799 19.1193 173.455Z" fill="#D9F2FF"/>
<path d="M19.7019 174.146C19.4577 174.146 19.2135 174.117 18.9723 174.058C18.1662 173.861 17.4984 173.349 17.0924 172.622C16.6452 171.822 16.5599 170.828 16.86 169.892L19.3635 162.081C19.946 160.263 21.8171 159.128 23.5351 159.549C24.3412 159.746 25.009 160.258 25.415 160.984C25.8621 161.784 25.9475 162.779 25.6474 163.714L23.1439 171.525C22.6437 173.087 21.1904 174.146 19.7048 174.146H19.7019ZM22.7879 160.702C21.8288 160.702 20.8815 161.417 20.5462 162.461L18.0426 170.272C17.8485 170.881 17.8955 171.516 18.175 172.016C18.4133 172.44 18.8016 172.737 19.2665 172.852C20.3608 173.122 21.5699 172.355 21.9553 171.145L24.4589 163.335C24.653 162.726 24.606 162.09 24.3265 161.59C24.0882 161.167 23.6999 160.869 23.2351 160.755C23.088 160.719 22.935 160.702 22.7849 160.702H22.7879Z" fill="#45BEFF"/>
<path d="M21.2404 169.298C20.9962 169.298 20.7521 169.268 20.5108 169.21C19.7048 169.013 19.037 168.501 18.631 167.771C18.1838 166.971 18.0985 165.977 18.3986 165.041L19.5812 165.421C19.387 166.029 19.4341 166.665 19.7136 167.165C19.9519 167.589 20.3402 167.886 20.805 168.001C21.8994 168.271 23.1085 167.503 23.4939 166.294L24.6765 166.674C24.1764 168.236 22.7231 169.295 21.2375 169.295L21.2404 169.298Z" fill="#45BEFF"/>
<path d="M34.3346 162.515C33.0019 163.256 31.4486 162.718 30.8691 161.315L27.883 154.078C27.3035 152.671 27.9154 150.933 29.2481 150.188C30.5808 149.447 32.1341 149.985 32.7136 151.389L35.6996 158.626C36.2792 160.032 35.6702 161.771 34.3346 162.515Z" fill="white"/>
<path d="M33.0903 163.472C32.7608 163.472 32.4283 163.416 32.1106 163.304C31.2898 163.016 30.6426 162.395 30.2955 161.551L27.3095 154.311C26.6152 152.625 27.3477 150.531 28.9452 149.642C29.7483 149.195 30.6456 149.107 31.4722 149.395C32.293 149.683 32.9402 150.304 33.2874 151.148L36.2734 158.385C36.9677 160.071 36.2351 162.166 34.6377 163.054C34.1435 163.328 33.6169 163.466 33.0903 163.466V163.472ZM30.4955 150.475C30.1778 150.475 29.8542 150.56 29.5512 150.731C28.4862 151.322 27.9949 152.716 28.4598 153.837L31.4458 161.077C31.6576 161.589 32.04 161.963 32.5225 162.13C33.0079 162.301 33.5463 162.242 34.0346 161.972C35.0996 161.377 35.5879 159.986 35.1261 158.862L32.14 151.625C31.9282 151.113 31.5458 150.74 31.0633 150.569C30.8809 150.504 30.6897 150.472 30.4955 150.472V150.475Z" fill="#45BEFF"/>
<path d="M2.5595 165.497C1.53867 164.485 1.59162 162.705 2.67718 161.525L8.26675 155.441C9.3523 154.259 11.0615 154.123 12.0794 155.135C13.1003 156.147 13.0473 157.927 11.9617 159.107L6.37218 165.191C5.28662 166.373 3.57739 166.509 2.5595 165.497Z" fill="#D9F2FF"/>
<path d="M4.23338 166.797C3.43025 166.797 2.68301 166.494 2.12111 165.938C0.867872 164.693 0.912 162.525 2.22114 161.104L7.81071 155.021C8.4844 154.288 9.40226 153.858 10.3348 153.835C11.1733 153.814 11.944 154.12 12.5207 154.694C13.7739 155.935 13.7298 158.107 12.4206 159.528L6.83106 165.611C6.16031 166.344 5.2395 166.773 4.30693 166.797C4.28339 166.797 4.25692 166.797 4.23338 166.797ZM10.4084 155.079C10.4084 155.079 10.379 155.079 10.3643 155.079C9.76706 155.094 9.1728 155.379 8.72563 155.862L3.13606 161.946C2.27409 162.881 2.21231 164.279 2.99779 165.055C3.33317 165.388 3.78622 165.561 4.27751 165.552C4.87471 165.538 5.46897 165.252 5.91614 164.77L11.5057 158.686C12.3677 157.751 12.4295 156.353 11.644 155.577C11.3204 155.256 10.882 155.079 10.4084 155.079Z" fill="#45BEFF"/>
<path d="M9.07577 162.241L6.36336 165.177C5.28663 166.366 3.57446 166.516 2.57128 165.512C1.52985 164.471 1.60634 162.688 2.68307 161.535L5.21014 158.746C5.1719 158.896 5.1719 159.081 5.1719 159.229C5.1719 160.085 5.46903 160.903 6.10153 161.532C6.66049 162.091 7.40184 162.388 8.18144 162.388H8.25499C8.51388 162.388 8.81101 162.35 9.07283 162.238L9.07577 162.241Z" fill="#BFE9FF"/>
<path d="M4.23338 166.795C3.42731 166.795 2.68007 166.495 2.12111 165.939C0.867872 164.694 0.912 162.523 2.22114 161.105L7.81071 155.019C8.48146 154.289 9.40226 153.857 10.3319 153.836C11.1527 153.865 11.944 154.118 12.5177 154.692C13.771 155.936 13.7268 158.108 12.4177 159.526L6.82812 165.612C6.15443 166.342 5.23362 166.774 4.30399 166.795H4.23044H4.23338ZM2.99485 165.053C3.31846 165.377 3.75974 165.553 4.23338 165.553C4.24809 165.553 4.2628 165.553 4.27751 165.551C4.87471 165.539 5.47191 165.253 5.91614 164.771L11.5057 158.684C12.3677 157.749 12.4295 156.354 11.644 155.578C11.3086 155.242 10.8261 155.004 10.3613 155.08C9.76706 155.092 9.16986 155.377 8.72563 155.86L3.13606 161.947C2.27409 162.882 2.21231 164.277 2.99779 165.053H2.99485Z" fill="#45BEFF"/>
<path d="M8.08739 162.593C7.28425 162.593 6.53702 162.29 5.97512 161.734C4.72188 160.489 4.766 158.321 6.07514 156.9L6.99006 157.742C6.12809 158.677 6.06631 160.075 6.8518 160.854C7.18717 161.187 7.64316 161.349 8.13446 161.351C8.73166 161.337 9.32592 161.051 9.77014 160.569L10.6851 161.41C10.0143 162.143 9.09351 162.572 8.16093 162.596C8.1374 162.596 8.11092 162.596 8.08739 162.596V162.593Z" fill="#45BEFF"/>
<path d="M9.25501 171.925C8.02531 171.192 7.70759 169.486 8.54602 168.112L13.5149 159.99C14.3533 158.616 16.0331 158.098 17.2628 158.831C18.4925 159.563 18.8102 161.269 17.9718 162.643L13.003 170.766C12.1645 172.14 10.4847 172.657 9.25501 171.925Z" fill="#D9F2FF"/>
<path d="M10.476 172.874C9.94349 172.874 9.41395 172.739 8.93736 172.457C8.24602 172.045 7.75473 171.371 7.55468 170.562C7.32815 169.647 7.49584 168.635 8.01655 167.788L12.9854 159.665C14.0003 158.006 16.0626 157.391 17.5806 158.297C18.2719 158.709 18.7632 159.383 18.9633 160.192C19.1898 161.107 19.0221 162.119 18.5014 162.966L13.5326 171.089C12.8354 172.227 11.6439 172.874 10.476 172.874ZM16.0332 159.118C15.2859 159.118 14.5063 159.554 14.0445 160.313L9.07563 168.435C8.72849 169.003 8.61376 169.668 8.76085 170.262C8.88147 170.747 9.16977 171.147 9.57281 171.389L9.25509 171.924L9.57281 171.392C10.5113 171.951 11.8116 171.524 12.4735 170.441L17.4423 162.319C17.7895 161.751 17.9042 161.086 17.7571 160.492C17.6365 160.007 17.3482 159.606 16.9452 159.365C16.6657 159.198 16.3538 159.118 16.0332 159.118Z" fill="#45BEFF"/>
<path d="M13.9064 167.332C14.0565 167.332 14.2418 167.332 14.3889 167.258L12.4561 170.453C11.8236 171.53 10.5233 171.939 9.55832 171.383C9.18764 171.159 8.89051 170.75 8.77872 170.268C8.63162 169.674 8.74047 169.006 9.07585 168.447L11.0469 165.252C11.2705 165.958 11.753 166.552 12.3472 166.923C12.8297 167.22 13.3504 167.332 13.9094 167.332H13.9064Z" fill="#BFE9FF"/>
<path d="M13.9064 167.332C14.0565 167.332 14.2418 167.332 14.3889 167.258L12.4561 170.453C11.8236 171.53 10.5233 171.939 9.55832 171.383C9.18764 171.159 8.89051 170.75 8.77872 170.268C8.63162 169.674 8.74047 169.006 9.07585 168.447L11.0469 165.252C11.2705 165.958 11.753 166.552 12.3472 166.923C12.8297 167.22 13.3504 167.332 13.9094 167.332H13.9064Z" fill="#BFE9FF"/>
<path d="M13.8915 167.292C13.359 167.292 12.8295 167.156 12.3529 166.874C11.6615 166.462 11.1703 165.788 10.9702 164.979C10.7437 164.064 10.9114 163.052 11.4321 162.205L12.4912 162.852C12.144 163.42 12.0293 164.085 12.1764 164.679C12.297 165.165 12.5853 165.565 12.9883 165.806C13.9268 166.365 15.2271 165.938 15.889 164.856L16.9481 165.503C16.2509 166.641 15.0594 167.289 13.8915 167.289V167.292Z" fill="#45BEFF"/>
<path d="M0.991532 156.027C0.256062 154.947 0.670867 153.238 1.92411 152.212L6.06627 148.808C7.31657 147.781 8.92872 147.822 9.66419 148.905C10.3997 149.985 9.98486 151.694 8.73162 152.72L4.58945 156.124C3.33915 157.151 1.727 157.11 0.991532 156.027Z" fill="#D9F2FF"/>
<path d="M2.66245 157.488C2.52124 157.488 2.38003 157.48 2.24176 157.459C1.50629 157.353 0.879667 156.971 0.47663 156.376C-0.450062 155.017 0.0118127 152.976 1.52688 151.731L5.66905 148.327C6.48983 147.651 7.49007 147.339 8.41088 147.471C9.14635 147.577 9.77297 147.96 10.176 148.551C11.1027 149.913 10.6408 151.952 9.12576 153.199L4.98359 156.603C4.28636 157.177 3.4597 157.488 2.66245 157.488ZM7.98725 148.686C7.4783 148.686 6.93405 148.898 6.46041 149.289L2.31825 152.693C1.32977 153.505 0.956156 154.873 1.50629 155.679C1.76811 156.064 2.14762 156.191 2.42121 156.232C2.99782 156.315 3.64503 156.1 4.19811 155.647L8.34027 152.243C9.32874 151.431 9.70236 150.063 9.15223 149.257C8.8904 148.872 8.5109 148.745 8.23731 148.707C8.15493 148.695 8.07256 148.689 7.99019 148.689L7.98725 148.686Z" fill="#45BEFF"/>
<path d="M6.66043 154.435L4.58052 156.109C3.35376 157.15 1.71807 157.112 1.01202 156.035H0.973778C0.267727 154.959 0.676649 153.246 1.93871 152.208L3.94508 150.572C3.5744 151.502 3.6097 152.543 4.16866 153.323C4.57758 153.917 5.21008 154.326 5.95144 154.438H6.65749L6.66043 154.435Z" fill="#BFE9FF"/>
<path d="M2.66538 157.488C2.52417 157.488 2.38296 157.476 2.24469 157.459C1.50922 157.353 0.882597 156.968 0.479559 156.373C-0.447133 155.017 0.0147423 152.975 1.52981 151.731L5.67198 148.327C6.48982 147.654 7.47535 147.345 8.41087 147.471C9.14634 147.577 9.77296 147.962 10.176 148.548C11.1027 149.913 10.6408 151.955 9.1228 153.196L4.98064 156.6C4.28341 157.173 3.45674 157.485 2.66243 157.485L2.66538 157.488ZM7.99018 148.683C7.48123 148.683 6.93699 148.898 6.4604 149.286L2.31823 152.69C1.32976 153.502 0.959086 154.87 1.50628 155.676C1.7681 156.061 2.14761 156.188 2.4212 156.229C3.00075 156.311 3.64208 156.1 4.19515 155.644L8.33732 152.24C9.32579 151.428 9.69941 150.06 9.14928 149.248C8.88745 148.866 8.50795 148.739 8.23435 148.701C8.15198 148.689 8.06961 148.683 7.98724 148.683H7.99018Z" fill="#45BEFF"/>
<path d="M6.07504 154.706C5.93383 154.706 5.79262 154.698 5.65435 154.677C4.91888 154.571 4.29226 154.189 3.88923 153.594C2.96254 152.235 3.42441 150.194 4.93948 148.949L5.7279 149.908C4.73943 150.72 4.36581 152.088 4.91594 152.894C5.17777 153.28 5.55727 153.406 5.83087 153.447C6.40453 153.53 7.05469 153.318 7.60776 152.862L8.39619 153.821C7.69896 154.395 6.87229 154.706 6.07504 154.706Z" fill="#45BEFF"/>
<path d="M17.0541 161.184L10.5084 155.483C7.44886 152.818 7.33707 148.005 10.2613 144.974L16.7423 138.261C18.9751 135.949 22.3877 135.337 25.1413 136.758L29.8424 139.182C33.1668 140.897 34.4906 145.001 32.8549 148.525L28.2156 158.513C26.168 162.926 20.5873 164.258 17.0541 161.181V161.184Z" fill="white"/>
<path d="M21.5258 163.458C19.7401 163.458 18.0279 162.829 16.66 161.637L10.1143 155.936C8.5492 154.574 7.63722 152.656 7.54602 150.534C7.45188 148.337 8.28443 146.157 9.82892 144.557L16.3099 137.843C18.7458 135.322 22.4055 134.669 25.415 136.222L30.1161 138.646C33.7288 140.509 35.1703 144.96 33.3993 148.775L28.7599 158.763C27.6714 161.105 25.6239 162.752 23.138 163.282C22.5967 163.396 22.0554 163.452 21.5229 163.452L21.5258 163.458ZM21.9818 136.596C20.2343 136.596 18.4957 137.317 17.1748 138.685L10.6938 145.398C9.37587 146.763 8.66688 148.619 8.74631 150.49C8.8228 152.276 9.59063 153.891 10.9027 155.036L17.4484 160.737C18.937 162.034 20.9198 162.537 22.8909 162.117C25.0031 161.667 26.7447 160.263 27.6714 158.269L32.3108 148.281C33.8111 145.051 32.605 141.294 29.566 139.726L24.8649 137.302C23.9499 136.831 22.9644 136.602 21.9818 136.602V136.596Z" fill="#45BEFF"/>
<path d="M28.1831 157.198L27.6742 158.266C26.7328 160.249 25.0059 161.673 22.8936 162.105C20.9108 162.538 18.928 162.029 17.4541 160.731L10.8967 155.036C9.59929 153.892 8.81086 152.265 8.73438 150.485C8.7079 149.544 8.86088 148.629 9.19331 147.764C9.54928 149.264 10.3612 150.611 11.5586 151.653L18.0925 157.348C19.4664 158.543 21.1697 159.178 22.9731 159.178C23.5055 159.178 24.041 159.128 24.5735 159.002C25.9473 158.696 27.1917 158.087 28.1831 157.195V157.198Z" fill="#D9F2FF"/>
<path d="M142.428 115.753L133.488 118.366C130.396 119.269 127.128 118.113 125.439 115.512L124.039 113.371L122.55 111.096C120.505 107.96 121.4 103.733 124.562 101.488L127.151 99.6408L133.532 95.1074C137.492 92.2714 143.005 93.8777 144.555 98.3022L147.415 106.489C148.747 110.329 146.476 114.571 142.428 115.759V115.753Z" fill="white"/>
<path d="M131.349 119.274C128.772 119.274 126.36 118.03 124.933 115.838L122.047 111.425C119.826 108.018 120.776 103.438 124.215 100.996L133.185 94.6122C135.28 93.1118 137.871 92.6882 140.29 93.4531C142.578 94.1768 144.34 95.8684 145.123 98.0983L147.983 106.286C148.668 108.257 148.509 110.384 147.532 112.275C146.526 114.226 144.729 115.703 142.596 116.329L133.653 118.942C132.885 119.168 132.108 119.274 131.346 119.274H131.349ZM137.889 94.2827C136.48 94.2827 135.085 94.7269 133.882 95.5918L124.912 101.976C122.003 104.041 121.188 107.904 123.056 110.766L125.942 115.182C127.498 117.576 130.464 118.624 133.32 117.788L142.264 115.176C144.082 114.643 145.614 113.384 146.47 111.725C147.291 110.131 147.429 108.339 146.853 106.68L143.993 98.4925C143.337 96.6244 141.858 95.2035 139.934 94.5945C139.263 94.3827 138.577 94.2797 137.895 94.2797L137.889 94.2827Z" fill="#45BEFF"/>
<path d="M147.153 109.392C147.068 110.195 146.841 110.989 146.47 111.731C145.603 113.384 144.073 114.643 142.252 115.184L133.308 117.776C130.472 118.623 127.492 117.585 125.933 115.176L123.044 110.76C121.956 109.098 121.785 107.115 122.382 105.338C122.532 105.788 122.759 106.212 123.027 106.632L125.915 111.048C127.448 113.399 130.105 114.658 132.867 114.475C133.461 114.434 134.056 114.337 134.641 114.158L143.581 111.545C144.952 111.154 146.179 110.395 147.147 109.392H147.153Z" fill="#D1EFFF"/>
<path d="M147.197 89.7399L145.688 91.3373L141.569 95.7001C140.469 96.871 138.668 97.0504 137.551 96.1473C137.024 95.7236 136.742 95.1029 136.7 94.4675C136.653 93.7526 136.921 92.9965 137.498 92.3787L143.122 86.3979C143.273 86.2478 143.423 86.0978 143.593 85.989C144.679 85.2182 146.153 85.1799 147.123 85.9742C148.262 86.8951 148.274 88.569 147.194 89.7399H147.197Z" fill="white"/>
<path d="M139.233 97.3385C138.483 97.3385 137.748 97.109 137.159 96.6325C136.53 96.1264 136.136 95.3527 136.08 94.5114C136.021 93.6082 136.371 92.6786 137.045 91.9578L142.672 85.977C142.846 85.8005 143.028 85.6181 143.261 85.471C144.585 84.5325 146.344 84.5354 147.521 85.4974C148.162 86.0152 148.547 86.7566 148.609 87.5803C148.677 88.4952 148.33 89.4366 147.656 90.1633C147.65 90.1691 142.025 96.1294 142.025 96.1294C141.278 96.9237 140.242 97.3385 139.236 97.3385H139.233ZM145.432 86.0211C144.929 86.0211 144.402 86.18 143.955 86.5006C143.814 86.5918 143.693 86.7154 143.564 86.8419L137.951 92.808C137.512 93.2758 137.283 93.8671 137.321 94.429C137.353 94.932 137.574 95.3704 137.939 95.6646C138.821 96.3765 140.245 96.2029 141.116 95.2762L146.741 89.316C147.179 88.8394 147.406 88.2393 147.365 87.6685C147.329 87.1831 147.112 86.7654 146.732 86.4594C146.373 86.1652 145.911 86.0211 145.432 86.0211Z" fill="#45BEFF"/>
<path d="M147.197 89.7399L145.688 91.3373C144.614 92.2669 143.023 92.3522 141.99 91.5226C141.463 91.099 141.181 90.4783 141.14 89.8428C141.093 89.1279 141.36 88.3719 141.937 87.7541L143.593 85.989C144.679 85.2182 146.153 85.1799 147.124 85.9742C148.262 86.8951 148.274 88.569 147.194 89.7399H147.197Z" fill="white"/>
<path d="M143.67 92.7144C142.923 92.7144 142.187 92.482 141.602 92.0113C140.969 91.5024 140.578 90.7316 140.519 89.8902C140.46 88.9871 140.81 88.0574 141.484 87.3367L143.234 85.4892C144.579 84.5331 146.341 84.5389 147.518 85.498C148.159 86.0158 148.545 86.7571 148.606 87.5809C148.674 88.4958 148.327 89.4372 147.653 90.1638C147.647 90.1697 146.094 91.8083 146.094 91.8083C145.4 92.4085 144.526 92.7144 143.67 92.7144ZM144.005 86.4659L142.393 88.1839C141.955 88.6517 141.725 89.243 141.761 89.8049C141.793 90.308 142.014 90.7463 142.381 91.0405C143.173 91.6759 144.405 91.6083 145.261 90.8875L146.744 89.3166C147.182 88.84 147.409 88.2398 147.368 87.6691C147.332 87.1837 147.115 86.766 146.735 86.46C146.015 85.8716 144.876 85.8775 144.005 86.4659Z" fill="#45BEFF"/>
<path d="M157.355 105.061L154.581 105.944L149.348 107.629C147.824 108.129 146.262 107.397 145.891 106.023V106.002C145.5 104.632 146.415 103.114 147.956 102.613L153.113 100.972C153.131 100.951 153.169 100.928 153.19 100.928L155.826 100.092C157.349 99.6127 158.894 100.328 159.285 101.716C159.674 103.067 158.794 104.523 157.352 105.058L157.355 105.061Z" fill="white"/>
<path d="M148.38 108.409C147.809 108.409 147.247 108.274 146.756 108.009C146.02 107.612 145.502 106.968 145.291 106.188L145.273 106.109C144.841 104.438 145.944 102.617 147.765 102.025L152.831 100.413C152.887 100.378 152.957 100.345 153.034 100.328L155.64 99.504C156.587 99.2069 157.596 99.2893 158.411 99.7276C159.141 100.122 159.665 100.769 159.885 101.552C160.356 103.187 159.341 104.988 157.573 105.644L157.546 105.653L154.772 106.535L149.542 108.221C149.162 108.344 148.768 108.406 148.383 108.406L148.38 108.409ZM146.506 105.92C146.635 106.341 146.932 106.694 147.344 106.915C147.871 107.2 148.53 107.244 149.153 107.041L157.152 104.476C158.308 104.04 158.982 102.908 158.691 101.896C158.558 101.431 158.258 101.06 157.823 100.825C157.302 100.543 156.643 100.495 156.017 100.693L153.496 101.49L153.472 101.519L148.15 103.214C146.938 103.608 146.191 104.788 146.491 105.841L146.511 105.923L146.506 105.92Z" fill="#45BEFF"/>
<path d="M157.355 105.062L154.581 105.945C153.057 106.445 151.513 105.709 151.121 104.321C151.071 104.165 151.042 104.006 151.03 103.847C150.951 102.635 151.807 101.423 153.113 100.976C153.131 100.955 153.169 100.932 153.19 100.932L155.826 100.096C157.349 99.6166 158.894 100.332 159.285 101.72C159.673 103.07 158.794 104.527 157.352 105.062H157.355Z" fill="white"/>
<path d="M153.619 106.72C153.057 106.72 152.507 106.588 152.022 106.332C151.28 105.938 150.748 105.282 150.524 104.488C150.465 104.305 150.424 104.096 150.41 103.887C150.312 102.419 151.319 100.978 152.816 100.422C152.875 100.384 152.948 100.348 153.034 100.328L155.64 99.504C156.587 99.2069 157.597 99.2893 158.411 99.7276C159.141 100.122 159.665 100.769 159.885 101.552C160.356 103.187 159.341 104.988 157.573 105.644L157.547 105.653L154.772 106.535C154.396 106.659 154.005 106.72 153.622 106.72H153.619ZM153.493 101.487L153.472 101.51L153.313 101.563C152.286 101.913 151.586 102.858 151.651 103.805C151.657 103.911 151.68 104.02 151.713 104.129C151.851 104.614 152.166 104.999 152.607 105.235C153.125 105.511 153.775 105.553 154.387 105.352L157.152 104.473C158.308 104.037 158.982 102.905 158.691 101.893C158.559 101.428 158.258 101.057 157.823 100.822C157.302 100.54 156.643 100.493 156.017 100.69L153.496 101.487H153.493Z" fill="#45BEFF"/>
<path d="M155.684 95.8564C155.534 95.9858 155.364 96.1182 155.17 96.2094L146.838 100.813C145.435 101.584 143.714 101.202 143.011 99.9515C142.831 99.6455 142.749 99.3102 142.725 98.9719C142.658 97.9393 143.223 96.8655 144.282 96.2947L149.554 93.3705L152.613 91.6907C154.019 90.9199 155.74 91.3024 156.44 92.5527C157.07 93.6265 156.723 95.0062 155.684 95.8535V95.8564Z" fill="white"/>
<path d="M145.311 101.834C144.141 101.834 143.04 101.272 142.47 100.257C142.261 99.9042 142.137 99.4835 142.108 99.0157C142.019 97.6948 142.758 96.4122 143.991 95.7503L152.316 91.1492C154.022 90.2107 156.117 90.7049 156.985 92.2524C157.753 93.5586 157.376 95.2796 156.085 96.3357C155.937 96.4622 155.711 96.6416 155.44 96.774L147.141 101.363C146.556 101.684 145.923 101.84 145.311 101.84V101.834ZM154.149 91.914C153.74 91.914 153.313 92.02 152.913 92.2377L149.854 93.9175L144.585 96.8417C143.773 97.2771 143.29 98.0979 143.346 98.9334C143.364 99.2099 143.432 99.4394 143.546 99.6394C144.088 100.601 145.426 100.881 146.538 100.272L154.867 95.6679C155.04 95.5826 155.176 95.4737 155.279 95.3855C156.108 94.7088 156.367 93.6556 155.905 92.8702C155.558 92.2524 154.881 91.917 154.149 91.917V91.914Z" fill="#45BEFF"/>
<path d="M155.684 95.8554L152.645 97.5352C151.242 98.306 149.539 97.9206 148.818 96.6733C148.638 96.3644 148.556 96.0319 148.533 95.6936C148.477 94.8581 148.836 93.9785 149.553 93.3725L152.613 91.6927C154.019 90.9219 155.74 91.3043 156.44 92.5546C157.07 93.6284 156.723 95.0082 155.684 95.8554Z" fill="white"/>
<path d="M151.133 98.547C149.965 98.547 148.862 97.991 148.28 96.9819C148.068 96.6201 147.944 96.1994 147.912 95.7346C147.841 94.6755 148.306 93.6135 149.153 92.8957L149.256 92.8251L152.316 91.1452C154.022 90.2068 156.117 90.701 156.985 92.2485C157.752 93.5576 157.373 95.2815 156.078 96.3377L155.987 96.3994L152.948 98.0793C152.369 98.397 151.745 98.547 151.136 98.547H151.133ZM149.912 93.8841C149.392 94.346 149.109 95.0021 149.153 95.6522C149.171 95.9287 149.236 96.1582 149.353 96.3583C149.903 97.3114 151.245 97.5938 152.345 96.9878L155.331 95.3374C156.117 94.6696 156.358 93.64 155.905 92.8662C155.364 91.9043 154.025 91.6248 152.913 92.2337L149.912 93.8812V93.8841Z" fill="#45BEFF"/>
<path d="M155.958 110.718V110.739C156.052 111.831 155.205 112.904 153.981 113.363C153.769 113.478 153.516 113.554 153.257 113.59L147.971 114.481C146.373 114.766 145.002 113.922 144.897 112.631C144.897 112.617 144.897 112.603 144.897 112.589C144.811 111.298 146.023 110.042 147.6 109.777L151.051 109.189L152.884 108.868C154.481 108.583 155.852 109.427 155.958 110.718Z" fill="white"/>
<path d="M147.353 115.161C146.576 115.161 145.847 114.931 145.282 114.496C144.691 114.04 144.335 113.398 144.276 112.684V112.634C144.164 111.01 145.579 109.489 147.494 109.165L152.775 108.256C153.813 108.071 154.834 108.288 155.57 108.853C156.161 109.309 156.52 109.951 156.576 110.665V110.692C156.69 112.022 155.728 113.351 154.234 113.931C153.972 114.063 153.666 114.16 153.346 114.207L148.074 115.096C147.832 115.14 147.591 115.161 147.353 115.161ZM153.501 109.436C153.334 109.436 153.163 109.45 152.993 109.483L147.703 110.395C146.453 110.604 145.45 111.592 145.514 112.554V112.595C145.555 113.045 145.823 113.345 146.044 113.513C146.503 113.866 147.168 113.996 147.865 113.872L153.157 112.981C153.366 112.951 153.549 112.892 153.69 112.819L153.763 112.787C154.746 112.419 155.408 111.58 155.343 110.795V110.774C155.305 110.312 155.034 110.012 154.814 109.845C154.469 109.58 154.007 109.439 153.504 109.439L153.501 109.436Z" fill="#45BEFF"/>
<path d="M155.958 110.718V110.739C156.052 111.831 155.205 112.904 153.981 113.363L152.148 113.684C150.571 113.949 149.18 113.125 149.071 111.816V111.795C148.997 110.724 149.845 109.651 151.051 109.189L152.884 108.868C154.481 108.583 155.852 109.427 155.958 110.718Z" fill="white"/>
<path d="M151.56 114.357C150.763 114.357 150.015 114.122 149.445 113.675C148.859 113.219 148.506 112.578 148.447 111.866C148.356 110.504 149.336 109.177 150.824 108.609L150.939 108.577L152.772 108.256C153.81 108.071 154.831 108.288 155.567 108.853C156.158 109.309 156.517 109.951 156.573 110.665V110.692C156.687 112.033 155.711 113.375 154.196 113.946L154.084 113.975L152.251 114.296C152.019 114.334 151.786 114.355 151.557 114.355L151.56 114.357ZM151.216 109.795C150.274 110.174 149.636 110.992 149.686 111.757C149.724 112.231 149.992 112.528 150.207 112.695C150.66 113.048 151.345 113.192 152.039 113.075L153.807 112.766C154.761 112.386 155.399 111.566 155.334 110.795V110.774C155.296 110.312 155.025 110.012 154.805 109.845C154.346 109.492 153.681 109.359 152.984 109.486L151.21 109.798L151.216 109.795Z" fill="#45BEFF"/>
<path d="M126.801 91.125C128.328 91.1397 129.408 92.3753 129.216 93.8845L128.657 101.572C128.466 103.081 126.645 104.372 125.118 104.358C123.591 104.343 122.318 104.616 122.512 103.107L123.692 93.8315C123.883 92.3223 125.274 91.1132 126.801 91.1279V91.125Z" fill="white"/>
<path d="M124.059 104.987C123.324 104.987 122.659 104.919 122.232 104.445C121.926 104.104 121.817 103.642 121.894 103.027L123.074 93.7517C123.303 91.9542 124.956 90.5039 126.772 90.5039C126.783 90.5039 126.795 90.5039 126.807 90.5039C127.728 90.5127 128.548 90.8805 129.125 91.5394C129.699 92.1955 129.949 93.0545 129.834 93.9606L129.278 101.612C129.034 103.542 126.833 105.007 125.112 104.975C124.901 104.975 124.692 104.975 124.495 104.981C124.347 104.981 124.203 104.987 124.059 104.987ZM126.772 91.7483C125.562 91.7483 124.459 92.7133 124.306 93.9077L123.127 103.183C123.091 103.46 123.127 103.583 123.156 103.616C123.285 103.76 123.997 103.748 124.471 103.739C124.68 103.736 124.898 103.731 125.124 103.734C126.419 103.736 127.895 102.616 128.04 101.492L128.596 93.84C128.669 93.2575 128.522 92.7427 128.187 92.3573C127.848 91.969 127.354 91.7542 126.792 91.7483H126.769H126.772Z" fill="#45BEFF"/>
<path d="M124.038 113.366L122.55 111.092C120.505 107.956 121.399 103.729 124.562 101.484C124.562 101.484 127.151 99.6367 128.475 99.7279C132.52 110.448 124.038 113.369 124.038 113.369V113.366Z" fill="white"/>
<path d="M123.783 114.114L122.029 111.434C119.802 108.018 120.755 103.426 124.2 100.978C124.483 100.775 127.01 99.0103 128.516 99.1074L128.913 99.1339L129.054 99.5075C130.481 103.291 130.564 106.571 129.301 109.26C127.666 112.74 124.38 113.905 124.238 113.955L123.78 114.114H123.783ZM128.051 100.384C127.16 100.569 125.727 101.42 124.921 101.993C122.02 104.053 121.208 107.904 123.068 110.757L124.271 112.596C125.145 112.178 127.107 111.022 128.184 108.721C129.243 106.45 129.198 103.65 128.051 100.387V100.384Z" fill="#45BEFF"/>
<path d="M41.8483 129.802C41.71 129.861 41.5688 129.881 41.4511 129.881C41.054 129.881 40.6951 129.663 40.5362 129.284L38.824 125.483C38.824 125.462 38.8034 125.462 38.8034 125.442L38.1062 123.909C37.8885 123.412 38.1062 122.815 38.6034 122.597C39.0623 122.379 39.6184 122.556 39.8566 122.994C39.8772 123.015 39.8978 123.053 39.9155 123.094L42.3425 128.469C42.5602 128.987 42.3425 129.563 41.8454 129.802H41.8483Z" fill="#2680E0"/>
<path d="M39.9773 125.742C39.8566 125.801 39.7184 125.821 39.5801 125.821C39.3006 125.821 39.0241 125.701 38.824 125.483C38.824 125.462 38.8034 125.462 38.8034 125.442L38.1062 123.909C37.8885 123.412 38.1062 122.815 38.6034 122.597C39.0623 122.379 39.6184 122.556 39.8566 122.994L40.4921 124.406C40.7098 124.924 40.4921 125.501 39.9743 125.739L39.9773 125.742Z" fill="#45BEFF"/>
<path d="M106.678 126.189C106.225 126.189 105.816 125.878 105.71 125.419L104.44 119.935C104.316 119.4 104.648 118.864 105.184 118.741C105.719 118.617 106.255 118.949 106.378 119.485L107.649 124.969C107.773 125.504 107.44 126.039 106.905 126.163C106.828 126.181 106.755 126.189 106.678 126.189Z" fill="#45BEFF"/>
<path d="M107.652 124.964C107.764 125.514 107.437 126.043 106.908 126.176L106.77 126.19C106.275 126.238 105.825 125.923 105.716 125.411L104.431 119.936C104.398 119.801 104.404 119.659 104.431 119.536C104.516 119.168 104.784 118.842 105.175 118.745C105.725 118.633 106.255 118.959 106.367 119.489L106.878 121.698L107.652 124.964Z" fill="#2680E0"/>
<path d="M106.89 121.703C106.811 122.047 106.508 122.376 106.14 122.447C106.108 122.488 106.069 122.491 106.034 122.494C105.516 122.544 105.034 122.179 104.949 121.703L104.749 120.788L104.443 119.546C104.519 119.164 104.787 118.84 105.187 118.728C105.664 118.646 106.137 118.899 106.287 119.293C106.328 119.326 106.373 119.396 106.378 119.473L106.89 121.7V121.703Z" fill="#45BEFF"/>
<path d="M106.902 121.849C106.823 122.193 106.555 122.516 106.152 122.593L106.04 122.605C105.634 122.643 105.202 122.422 105.052 122.028L104.746 120.787C104.822 120.404 105.09 120.08 105.49 119.969C105.966 119.886 106.44 120.139 106.59 120.534L106.902 121.849Z" fill="#73D5FF"/>
</svg>
