<svg width="80" height="80" viewBox="0 0 80 80" fill="none" xmlns="http://www.w3.org/2000/svg">
<circle cx="40" cy="40" r="40" fill="#587461"/>
<path d="M40 43.334C42.2133 43.334 44 41.5473 44 39.334V31.334C44 29.1207 42.2133 27.334 40 27.334C37.7866 27.334 36 29.1207 36 31.334V39.334C36 41.5473 37.7866 43.334 40 43.334Z" fill="white"/>
<path d="M46.6666 39.334C46.6666 43.014 43.68 46.0007 40 46.0007C36.32 46.0007 33.3333 43.014 33.3333 39.334H30.6666C30.6666 44.0406 34.1466 47.9073 38.6666 48.5606V52.6673H41.3333V48.5606C45.8533 47.9073 49.3333 44.0406 49.3333 39.334H46.6666Z" fill="white"/>
</svg>